<svg xmlns="http://www.w3.org/2000/svg" viewBox="0 0 180 32" fill="none">
  <rect width="32" height="32" rx="7" fill="#00D68F" fill-opacity="0.14"/>
  <path d="M9 10h6v2H9zM9 14h8v2H9zM9 18h7v2H9z" fill="#00D68F"/>
  <rect x="18" y="10" width="4" height="10" rx="1" fill="#00D68F" fill-opacity="0.72"/>
  <path d="M46.4 23V9h6.4c4.48 0 7.38 2.68 7.38 7s-2.9 7-7.38 7h-6.4Zm3.72-3h2.36c2.42 0 3.94-1.42 3.94-4s-1.52-4-3.94-4h-2.36v8Zm12.15 3V9h11.18v3H66v2.52h6.84v2.9H66V20h7.73v3H62.27Zm14.02 0V9h3.72v14h-3.72Zm7.45 0V9h6.36c4.36 0 6.84 2.1 6.84 5.64 0 3.56-2.48 5.66-6.84 5.66h-2.64V23h-3.72Zm3.72-5.68h2.16c1.92 0 2.92-.88 2.92-2.68 0-1.78-1-2.66-2.92-2.66h-2.16v5.34Zm11.26 5.68V9h3.72v14h-3.72Zm6.62 0V9h3.72v10.94h6.78V23h-10.5Zm12.47 0V9h3.72v14h-3.72Zm7.45 0V9h11.18v3h-7.46v2.52h6.84v2.9h-6.84V20h7.73v3h-11.45Zm14.02 0V9h3.72l5.74 8.78V9h3.48v14h-3.54l-5.92-8.96V23h-3.48Z" fill="#EAEAEA"/>
</svg>